<svg id="Слой_1" data-name="Слой 1" xmlns="http://www.w3.org/2000/svg" viewBox="0 0 393.87 125.42">
  <defs>
    <style>
      .cls-1 {
        fill: #fff;
      }
    </style>
  </defs>
  <title>10lvl</title>
  <g>
    <polygon class="cls-1" points="0 21.19 19.02 21.19 19.02 104.23 0 104.23 0 125.42 70.87 125.42 70.87 104.23 51.67 104.23 51.67 21.19 70.87 21.19 70.87 0 0 0 0 21.19"/>
    <polygon class="cls-1" points="375.83 104.23 343.03 62.37 372.77 21.19 390.17 21.19 390.17 0 333.64 0 333.64 21.17 344.98 21.17 329.02 43.27 311.43 21.17 323.45 21.17 323.45 0 257.81 0 257.81 21.19 275.03 21.19 305.54 61.12 275.03 104.23 256.54 104.23 256.54 125.42 314.97 125.42 314.97 104.25 302.08 104.25 320.03 79.5 338.97 104.25 326.42 104.25 326.42 125.42 393.87 125.42 393.87 104.23 375.83 104.23"/>
    <polygon class="cls-1" points="203.12 38.86 203.12 52.4 96.12 52.4 96.12 67.38 203.12 67.38 203.12 80.92 223.55 70.4 243.99 59.89 223.55 49.37 203.12 38.86"/>
  </g>
</svg>
