<svg id="Слой_1" data-name="Слой 1" xmlns="http://www.w3.org/2000/svg" viewBox="0 0 459 241.68">
  <defs>
    <style>
      .cls-1 {
        fill: #fff;
      }
    </style>
  </defs>
  <title>coins</title>
  <g>
    <path class="cls-1" d="M413.76,376.11c-37.69,0-58.88-21.84-59.09-22.06l-1.76-1.86V307h0c0-.43,0-.86,0-1.29,0-17.72,26.72-30.58,63.54-30.58S480,288,480,305.68c0,.43,0,.86-.05,1.29H480v48.57l-3.2,1.84c-21.59,12.43-42.79,18.73-63,18.73ZM365.7,348.88c5.24,4.6,21.51,14.67,47.53,14.67,17.08,0,35.23-3.2,54-13.46v-7.38c-18.29,9-36.25,13.62-53.44,13.62a89.12,89.12,0,0,1-48.07-13.58Zm0-16.78c5.24,4.59,21.51,11.67,47.53,11.67,17.08,0,35.23-.2,54-10.46v-8.66c-11.63,7.31-30.2,11.6-50.76,11.6s-39.12-4.29-50.75-11.6Zm50.75-44.2c-30.51,0-50.75,10.7-50.75,17.78s20.24,17.78,50.75,17.78,50.76-10.7,50.76-17.78S447,287.9,416.45,287.9Z" transform="translate(-21 -134.43)"/>
    <path class="cls-1" d="M81.85,334.34c-37.65,0-58.88-21.84-59.09-22.06L21,310.43V265.21h.05c0-.43-.05-.87-.05-1.29,0-17.72,26.73-30.58,63.55-30.58s63.54,12.86,63.54,30.58c0,.42,0,.86-.05,1.29h.05v48.56l-3.2,1.85c-21.59,12.42-42.79,18.72-63,18.72ZM33.79,307.12c5.25,4.59,21.52,14.67,47.53,14.67,17.08,0,35.23-3.2,54-13.46V301c-18.29,9-36.25,13.61-53.44,13.61A89.21,89.21,0,0,1,33.79,301Zm0-17.78C39,293.93,55.31,302,81.32,302c17.08,0,35.23-1.19,54-11.45v-7.67c-11.63,7.32-30.19,11.61-50.75,11.61s-39.13-4.29-50.76-11.61Zm50.76-43.21c-30.51,0-50.76,10.71-50.76,17.79S54,281.7,84.55,281.7,135.3,271,135.3,263.92,115.06,246.13,84.55,246.13Z" transform="translate(-21 -134.43)"/>
    <path class="cls-1" d="M222.53,367.32c-37.62,0-58.88-21.84-59.09-22.06l-1.76-1.86V214.66h0c0-.44,0-.87,0-1.3,0-17.72,26.72-30.58,63.54-30.58s63.55,12.86,63.55,30.58c0,.43,0,.86-.06,1.3h.06v12.15a134.73,134.73,0,0,1,15.78,1.34V166.3h.05c0-.44-.05-.87-.05-1.3,0-17.71,26.73-30.57,63.55-30.57s63.54,12.86,63.54,30.57c0,.43,0,.86-.05,1.3h.05v92.52l-3.2,1.85c-21.58,12.42-42.79,18.72-63,18.72a90.67,90.67,0,0,1-17.33-1.66l0,.47V305l-3.21,1.85c-19.11,11-38,17.21-56.14,18.47v21.44l-3.21,1.85c-21.58,12.42-42.78,18.73-63,18.73Zm-48.06-27.23c5.24,4.59,21.51,14.67,47.53,14.67,17.07,0,35.23-4.2,54-14.46v-6.38c-18.29,9-36.25,13.61-53.44,13.61A89.18,89.18,0,0,1,174.47,334Zm0-18.78C179.71,325.9,196,335,222,335c17.07,0,35.23-3.2,54-13.46v-7.39c-18.29,9-36.25,13.62-53.44,13.62a89.18,89.18,0,0,1-48.07-13.57Zm0-21.78c5.24,4.59,21.51,15.66,47.53,15.66,17.07,0,35.23-5.2,54-15.45v-7.59c-18.29,9-36.25,13.62-53.44,13.62a89.18,89.18,0,0,1-48.07-13.57Zm114.3,13.14c14.88-1.28,30.52-4.36,46.55-13.13v-5.19c-15.83,7.83-31.47,12.31-46.55,13.36Zm0-17.61c14.9-1.27,30.54-3.35,46.55-12.11V276.3c-10.84,6.86-27.45,11-46.55,11.52Zm-114.3-17.52c5.24,4.6,21.51,15.67,47.53,15.67,17.07,0,35.23-5.2,54-15.45v-7.59c-18.29,9-36.25,13.62-53.44,13.62a89.09,89.09,0,0,1-48.07-13.58ZM288.77,275c28.49-.93,46.55-11,46.55-17.71s-18.06-16.78-46.55-17.71Zm-114.3-17.47c5.24,4.6,21.51,14.67,47.53,14.67,17.07,0,35.23-4.2,54-14.46v-7.38c-18.29,9-36.25,13.62-53.44,13.62a89.12,89.12,0,0,1-48.07-13.58ZM347.87,265a79.61,79.61,0,0,0,17.06,1.82c17.06,0,35.19-5.19,53.92-15.44v-7.59c-18.28,9-36.25,13.62-53.43,13.62a91.83,91.83,0,0,1-17.66-1.7Zm-173.4-25.22c5.24,4.6,21.51,12.67,47.53,12.67,17.07,0,35.23-1.2,54-11.46v-8.66c-11.63,7.31-30.2,11.6-50.76,11.6s-39.13-4.29-50.75-11.6Zm163.41.32a77.32,77.32,0,0,0,27,4.75c17.06,0,35.21-5.2,54-15.45v-7.59c-18.28,9-36.25,13.62-53.43,13.62a89.25,89.25,0,0,1-48.08-13.57v6.33a58.62,58.62,0,0,0,5.81,4.42A56.49,56.49,0,0,1,337.88,240.1ZM225.22,195.58c-30.51,0-50.75,10.7-50.75,17.78s20.24,17.78,50.75,17.78S276,220.44,276,213.36,255.73,195.58,225.22,195.58ZM317,209c5.24,4.6,21.86,13.87,47.87,13.87,17.08,0,35.23-3.2,54-13.45V202c-18.28,9-36.25,13.62-53.43,13.62a89.16,89.16,0,0,1-48.08-13.58Zm0-18c5.24,4.59,21.86,12.09,47.87,12.09,17.08,0,35.38-1.83,54.13-12.09l-.15-7c-11.63,7.31-30.19,11.61-50.75,11.61S329,191.28,317.34,184Zm51.1-43.78c-30.51,0-50.76,10.7-50.76,17.78s20.25,17.78,50.76,17.78,50.75-10.7,50.75-17.78S398.61,147.22,368.1,147.22Z" transform="translate(-21 -134.43)"/>
  </g>
</svg>
