<svg id="Слой_1" data-name="Слой 1" xmlns="http://www.w3.org/2000/svg" viewBox="0 0 892.69 647.97">
    <defs>
        <style>
            .cls-1 {
            fill: #cdcdcd;
            }
        </style>
    </defs>
    <title>global_ivent</title>
    <g>
        <polygon class="cls-1"
                 points="396.76 86.95 396.46 93.55 395.87 287.72 474.79 287.72 474.79 0 404.73 0 305.94 80.49 346.28 130.08 396.76 86.95"/>
        <path class="cls-1"
              d="M960,665.61C899.44,547.28,810.26,466,763.54,428.79a394.91,394.91,0,0,1,38-18.1c-48.29-17.51-102-35.55-170.71-35.35,19.89,43.45,35.91,84.12,50,139.27,8.21-16.84,17.38-31.34,28.91-44.35C752.37,518,785,600,806.1,665.61h-106V574.72H379.9v62H254.72c14.12-49.84,33.85-102.34,60.25-137.45,11.38,10.84,20.74,23.21,29.41,37.76,8.56-50.76,19.92-88.62,34.55-129.28-61.91,5-109,25.35-151.14,44.79A357.65,357.65,0,0,1,263.39,466c-32.13,30.34-87.63,89.39-131.74,170.75h-38V877.26H986.34V665.61ZM952.4,843.32H127.6V670.67H413.85v-62h252.3v90.89H952.4Z"
              transform="translate(-93.66 -229.3)"/>
    </g>
</svg>
