<svg id="Слой_1" data-name="Слой 1" xmlns="http://www.w3.org/2000/svg" viewBox="0 0 497.46 492.49">
    <defs>
        <style>
            .cls-1 {
            fill: #cdcdcd;
            }
        </style>
    </defs>
    <title>gun</title>
    <g>
        <path class="cls-1"
              d="M188.25,385.41,168.88,357l-34.4-.17,21.05-27.2-10.48-32.77,32.38,11.62,27.93-20.09-1,34.38,27.73,20.35-33,9.64Zm-31.8-39.3,18.16.08,10.23,15,5.7-17.24L208,338.87l-14.65-10.75.55-18.16-14.75,10.61L162,314.44l5.54,17.3Z"
              transform="translate(-7.54 -11)"/>
        <path class="cls-1"
              d="M263.44,311.87l-19.37-28.43-34.4-.16,21.06-27.2-10.48-32.77,32.38,11.61,27.92-20.08-1,34.38,27.74,20.35-33,9.64Zm-31.79-39.3,18.16.08,10.23,15,5.7-17.25,17.43-5.09-14.64-10.74.55-18.16L254.33,247l-17.1-6.13,5.54,17.3Z"
              transform="translate(-7.54 -11)"/>
        <path class="cls-1"
              d="M339.41,239.22,320,210.79l-34.4-.16,21.05-27.2-10.48-32.77,32.38,11.61,27.93-20.08-1,34.38,27.73,20.35-33,9.64Zm-31.8-39.3,18.16.08L336,215l5.7-17.25,17.44-5.09-14.65-10.74.55-18.16-14.75,10.61-17.1-6.13,5.54,17.3Z"
              transform="translate(-7.54 -11)"/>
        <path class="cls-1"
              d="M105.08,503.49,7.54,404.32,407.47,11,505,110.17ZM22.84,404.44l82.36,83.75L489.7,110,407.34,26.3Z"
              transform="translate(-7.54 -11)"/>
    </g>
</svg>
