<svg id="Слой_1" data-name="Слой 1" xmlns="http://www.w3.org/2000/svg" viewBox="0 0 443.26 58.92">
  <defs>
    <style>
      .cls-1 {
        fill: #fff;
      }
    </style>
  </defs>
  <title>topdmg</title>
  <g>
    <path class="cls-1" d="M74.87,259.29h5.82v10.24H74.87v12.16H61.6V269.53H39.44l-.78-8.11L61.6,224.5v-.11H74.87Zm-23.58,0H61.6V241.66L60.78,243Z" transform="translate(-38.66 -223.56)"/>
    <path class="cls-1" d="M126.3,258.27q0,11.61-5.21,17.91t-14.7,6.29q-9.57,0-14.8-6.33t-5.23-17.87V247.8q0-11.61,5.21-17.9t14.74-6.3q9.52,0,14.76,6.33t5.23,17.91ZM113,246.11q0-6.18-1.61-9.23a5.4,5.4,0,0,0-5.12-3,5.29,5.29,0,0,0-5,2.83q-1.55,2.84-1.67,8.58v14.64q0,6.42,1.61,9.39a5.42,5.42,0,0,0,5.12,3,5.34,5.34,0,0,0,5-2.89q1.6-2.89,1.65-9.07Z" transform="translate(-38.66 -223.56)"/>
    <path class="cls-1" d="M173,258.27q0,11.61-5.21,17.91t-14.7,6.29q-9.57,0-14.8-6.33T133,258.27V247.8q0-11.61,5.22-17.9T153,223.6q9.52,0,14.76,6.33T173,247.84Zm-13.26-12.16q0-6.18-1.62-9.23a5.39,5.39,0,0,0-5.11-3,5.27,5.27,0,0,0-5,2.83q-1.56,2.84-1.67,8.58v14.64c0,4.28.53,7.41,1.61,9.39a5.42,5.42,0,0,0,5.12,3,5.33,5.33,0,0,0,5-2.89q1.62-2.89,1.66-9.07Z" transform="translate(-38.66 -223.56)"/>
    <path class="cls-1" d="M219.66,258.27q0,11.61-5.22,17.91t-14.7,6.29q-9.56,0-14.8-6.33t-5.23-17.87V247.8q0-11.61,5.21-17.9t14.74-6.3q9.53,0,14.76,6.33t5.24,17.91Zm-13.27-12.16q0-6.18-1.61-9.23a5.4,5.4,0,0,0-5.12-3,5.29,5.29,0,0,0-5,2.83q-1.55,2.84-1.67,8.58v14.64q0,6.42,1.62,9.39a5.4,5.4,0,0,0,5.11,3,5.34,5.34,0,0,0,5-2.89q1.62-2.89,1.65-9.07Z" transform="translate(-38.66 -223.56)"/>
    <path class="cls-1" d="M247.44,281.69v-57.3H265.9a27.09,27.09,0,0,1,13.65,3.44,24.28,24.28,0,0,1,9.47,9.72,29.27,29.27,0,0,1,3.44,14.07v2.64a29.63,29.63,0,0,1-3.32,14.11,24.39,24.39,0,0,1-9.37,9.76,26.68,26.68,0,0,1-13.48,3.56Zm13.81-46.64v36h4.81a10.75,10.75,0,0,0,9.13-4.23q3.18-4.23,3.18-12.57v-2.48q0-8.31-3.18-12.52t-9.29-4.21Z" transform="translate(-38.66 -223.56)"/>
    <path class="cls-1" d="M317.69,224.39l12.79,39.86,12.75-39.86h18.19v57.3H347.56V268.31l1.34-27.39-13.85,40.77h-9.13L312,240.88l1.34,27.43v13.38H299.55v-57.3Z" transform="translate(-38.66 -223.56)"/>
    <path class="cls-1" d="M417.1,274.6a22.15,22.15,0,0,1-9.32,5.71,40.34,40.34,0,0,1-13.46,2.16q-11.26,0-18-6.88t-7.2-19.17l0-5a34.3,34.3,0,0,1,3-14.78,22.21,22.21,0,0,1,8.56-9.72,24.2,24.2,0,0,1,12.89-3.4q10.71,0,16.63,4.9t6.9,14.62h-13.3q-.7-4.8-3.07-6.85a9.91,9.91,0,0,0-6.69-2,9,9,0,0,0-8,4.41q-2.84,4.41-2.87,12.6v3.46q0,8.58,2.93,12.89t9.23,4.31c3.6,0,6.27-.8,8-2.4v-8.9h-9.6v-9.48H417.1Z" transform="translate(-38.66 -223.56)"/>
    <path class="cls-1" d="M468.5,249.18h13.42v11.37H468.5v15.39H456.1V260.55H442.65V249.18H456.1v-15h12.4Z" transform="translate(-38.66 -223.56)"/>
  </g>
</svg>
