<svg width="512" height="512" viewBox="0 0 512 512" fill="#cdcdcd" xmlns="http://www.w3.org/2000/svg">
    <path d="M509.055 150.672L401.941 6.07031C399.109 2.25391 394.641 0 389.887 0C385.133 0 380.66 2.25391 377.836 6.07031L270.723 150.672C267.352 155.223 266.832 161.289 269.383 166.348C271.93 171.406 277.113 174.602 282.777 174.602H321.332V247.102C313.781 243.211 305.23 241 296.164 241H269.387C238.969 241 214.223 265.746 214.223 296.164V327.434C206.672 323.543 198.117 321.332 189.055 321.332H162.277C131.859 321.332 107.113 346.082 107.113 376.5V407.766C99.5586 403.879 91.0078 401.664 81.9453 401.664H55.1641C24.7461 401.664 0 426.414 0 456.832V497C0 505.285 6.71484 512 15 512H443.441C451.727 512 458.441 505.285 458.441 497V174.602H497C502.664 174.602 507.848 171.406 510.395 166.348C512.945 161.289 512.426 155.223 509.055 150.672ZM30 456.832C30 442.957 41.2891 431.664 55.1641 431.664H81.9414C95.8203 431.664 107.109 442.957 107.109 456.832V482H30V456.832ZM137.109 456.832V376.5C137.109 362.621 148.398 351.332 162.277 351.332H189.055C202.93 351.332 214.219 362.621 214.219 376.5V482H137.109V456.832ZM244.223 376.5V296.164C244.223 282.289 255.512 271 269.387 271H296.164C310.039 271 321.332 282.289 321.332 296.164V482H244.223V376.5ZM443.441 144.602C435.156 144.602 428.441 151.316 428.441 159.602V482H351.332V159.602C351.332 151.316 344.613 144.602 336.332 144.602H312.555L389.887 40.1992L467.223 144.602H443.441Z"
          fill="#cdcdcd"/>
</svg>
