<svg id="Слой_1" data-name="Слой 1" xmlns="http://www.w3.org/2000/svg" viewBox="0 0 1036 654.72">
    <defs>
        <style>
            .cls-1 {
            fill: #cdcdcd;
            }
        </style>
    </defs>
    <title>vzvod</title>
    <path class="cls-1"
          d="M301.4,505.56c-75.69,0-137.27-61.57-137.27-137.26S225.71,231,301.4,231,438.66,292.61,438.66,368.3,377.08,505.56,301.4,505.56Zm0-234.78a97.52,97.52,0,1,0,97.52,97.52A97.63,97.63,0,0,0,301.4,270.78Z"
          transform="translate(-15 -231.03)"/>
    <path class="cls-1"
          d="M727.82,610.82c-81.73,0-148.23-66.49-148.23-148.23s66.5-148.23,148.23-148.23,148.23,66.5,148.23,148.23S809.55,610.82,727.82,610.82Zm0-253.54A105.32,105.32,0,1,0,833.13,462.59,105.43,105.43,0,0,0,727.82,357.28Z"
          transform="translate(-15 -231.03)"/>
    <path class="cls-1"
          d="M414,760.16H15l2.11-21.79c5.24-54,19.86-104.59,43.47-150.45,22.94-44.57,54.14-83.1,90.22-111.43L165.44,465l12.43,13.86a165.61,165.61,0,0,0,251.6-5.28l11.9-14.44,15.14,11c26.28,19.13,49.91,43.15,70.24,71.4l10.19,14.15-12.71,11.94c-48.9,45.94-85.57,107.56-106,178.18ZM59.37,720.42H384.42c21.15-65.35,55.34-123.27,99.8-169.14a277.51,277.51,0,0,0-37.1-38,205.29,205.29,0,0,1-285.32,5.88C108.18,567.34,71.73,639,59.37,720.42Z"
          transform="translate(-15 -231.03)"/>
    <path class="cls-1"
          d="M1051,885.76H418.54l2.28-23.53c5.66-58.29,21.45-113,46.94-162.47,24.78-48.14,58.47-89.74,97.43-120.33L581,567l13.41,15a178.87,178.87,0,0,0,271.71-5.7L879,560.69l16.34,11.89c41.35,30.1,77.18,72.2,103.63,121.75,26.77,50.17,44,108.23,49.77,167.9ZM466.46,842.84h536.6c-14-91-56.74-172.19-117.88-223.71a221.7,221.7,0,0,1-308.11,6.35C519.17,677.53,479.81,754.91,466.46,842.84Z"
          transform="translate(-15 -231.03)"/>
</svg>
